<svg width="28" height="28" viewBox="0 0 28 28" fill="none" xmlns="http://www.w3.org/2000/svg">
<rect width="28" height="28" rx="8" fill="#9747FF"/>
<path d="M19.3133 12.2C19.0267 11.86 18.6133 11.6667 18.1667 11.6667H15.48V9.83333C15.48 8.82 14.66 8 13.5933 8C13.1267 8 12.7067 8.28 12.52 8.71333L10.8267 12.6667H9.58C8.70667 12.6667 8 13.3733 8 14.2467V18.0933C8 18.96 8.71333 19.6667 9.58 19.6667H17.2867C18.0133 19.6667 18.6333 19.1467 18.76 18.4267L19.64 13.4267C19.7133 12.9867 19.5933 12.54 19.3067 12.2H19.3133ZM9.58 18.6667C9.26 18.6667 9 18.4067 9 18.0933V14.2467C9 13.9267 9.26 13.6667 9.58 13.6667H10.6533V18.6667H9.58ZM17.78 18.2533C17.74 18.4933 17.5333 18.6667 17.2867 18.6667H11.66V13.2667L13.44 9.1C13.4667 9.04 13.5267 8.99333 13.6533 8.99333C14.1133 8.99333 14.48 9.36667 14.48 9.82667V12.66H18.1667C18.32 12.66 18.4533 12.72 18.5467 12.8333C18.64 12.9467 18.68 13.0933 18.6533 13.2467L17.7733 18.2467L17.78 18.2533Z" fill="white"/>
</svg>
