<svg width="94" height="28" viewBox="0 0 94 28" fill="none" xmlns="http://www.w3.org/2000/svg">
<path d="M18 10H0V28H18V10Z" fill="#994BFF"/>
<path d="M26 0H8V18H26V0Z" fill="#FF6099"/>
<path d="M46.4039 11.324C46.4039 11.996 46.2419 12.626 45.9179 13.214C45.6059 13.802 45.1079 14.276 44.4239 14.636C43.7519 14.996 42.8999 15.176 41.8679 15.176H39.7619V20H37.2419V7.43599H41.8679C42.8399 7.43599 43.6679 7.60399 44.3519 7.93999C45.0359 8.27599 45.5459 8.73799 45.8819 9.32599C46.2299 9.91399 46.4039 10.58 46.4039 11.324ZM41.7599 13.142C42.4559 13.142 42.9719 12.986 43.3079 12.674C43.6439 12.35 43.8119 11.9 43.8119 11.324C43.8119 10.1 43.1279 9.48799 41.7599 9.48799H39.7619V13.142H41.7599ZM46.6451 14.978C46.6451 13.97 46.8431 13.076 47.2391 12.296C47.6471 11.516 48.1931 10.916 48.8771 10.496C49.5731 10.076 50.3471 9.86599 51.1991 9.86599C51.9431 9.86599 52.5911 10.016 53.1431 10.316C53.7071 10.616 54.1571 10.994 54.4931 11.45V10.028H57.0311V20H54.4931V18.542C54.1691 19.01 53.7191 19.4 53.1431 19.712C52.5791 20.012 51.9251 20.162 51.1811 20.162C50.3411 20.162 49.5731 19.946 48.8771 19.514C48.1931 19.082 47.6471 18.476 47.2391 17.696C46.8431 16.904 46.6451 15.998 46.6451 14.978ZM54.4931 15.014C54.4931 14.402 54.3731 13.88 54.1331 13.448C53.8931 13.004 53.5691 12.668 53.1611 12.44C52.7531 12.2 52.3151 12.08 51.8471 12.08C51.3791 12.08 50.9471 12.194 50.5511 12.422C50.1551 12.65 49.8311 12.986 49.5791 13.43C49.3391 13.862 49.2191 14.378 49.2191 14.978C49.2191 15.578 49.3391 16.106 49.5791 16.562C49.8311 17.006 50.1551 17.348 50.5511 17.588C50.9591 17.828 51.3911 17.948 51.8471 17.948C52.3151 17.948 52.7531 17.834 53.1611 17.606C53.5691 17.366 53.8931 17.03 54.1331 16.598C54.3731 16.154 54.4931 15.626 54.4931 15.014ZM68.0063 10.028V20H65.4683V18.74C65.1443 19.172 64.7183 19.514 64.1903 19.766C63.6743 20.006 63.1103 20.126 62.4983 20.126C61.7183 20.126 61.0283 19.964 60.4283 19.64C59.8283 19.304 59.3543 18.818 59.0063 18.182C58.6703 17.534 58.5023 16.766 58.5023 15.878V10.028H61.0223V15.518C61.0223 16.31 61.2203 16.922 61.6163 17.354C62.0123 17.774 62.5523 17.984 63.2363 17.984C63.9323 17.984 64.4783 17.774 64.8743 17.354C65.2703 16.922 65.4683 16.31 65.4683 15.518V10.028H68.0063ZM68.9447 14.978C68.9447 13.97 69.1427 13.076 69.5387 12.296C69.9467 11.516 70.4987 10.916 71.1947 10.496C71.8907 10.076 72.6647 9.86599 73.5167 9.86599C74.1647 9.86599 74.7827 10.01 75.3707 10.298C75.9587 10.574 76.4267 10.946 76.7747 11.414V6.67999H79.3307V20H76.7747V18.524C76.4627 19.016 76.0247 19.412 75.4607 19.712C74.8967 20.012 74.2427 20.162 73.4987 20.162C72.6587 20.162 71.8907 19.946 71.1947 19.514C70.4987 19.082 69.9467 18.476 69.5387 17.696C69.1427 16.904 68.9447 15.998 68.9447 14.978ZM76.7927 15.014C76.7927 14.402 76.6727 13.88 76.4327 13.448C76.1927 13.004 75.8687 12.668 75.4607 12.44C75.0527 12.2 74.6147 12.08 74.1467 12.08C73.6787 12.08 73.2467 12.194 72.8507 12.422C72.4547 12.65 72.1307 12.986 71.8787 13.43C71.6387 13.862 71.5187 14.378 71.5187 14.978C71.5187 15.578 71.6387 16.106 71.8787 16.562C72.1307 17.006 72.4547 17.348 72.8507 17.588C73.2587 17.828 73.6907 17.948 74.1467 17.948C74.6147 17.948 75.0527 17.834 75.4607 17.606C75.8687 17.366 76.1927 17.03 76.4327 16.598C76.6727 16.154 76.7927 15.626 76.7927 15.014ZM84.7079 20.162C83.8919 20.162 83.1599 20.018 82.5119 19.73C81.8639 19.43 81.3479 19.028 80.9639 18.524C80.5919 18.02 80.3879 17.462 80.3519 16.85H82.8899C82.9379 17.234 83.1239 17.552 83.4479 17.804C83.7839 18.056 84.1979 18.182 84.6899 18.182C85.1699 18.182 85.5419 18.086 85.8059 17.894C86.0819 17.702 86.2199 17.456 86.2199 17.156C86.2199 16.832 86.0519 16.592 85.7159 16.436C85.3919 16.268 84.8699 16.088 84.1499 15.896C83.4059 15.716 82.7939 15.53 82.3139 15.338C81.8459 15.146 81.4379 14.852 81.0899 14.456C80.7539 14.06 80.5859 13.526 80.5859 12.854C80.5859 12.302 80.7419 11.798 81.0539 11.342C81.3779 10.886 81.8339 10.526 82.4219 10.262C83.0219 9.99799 83.7239 9.86599 84.5279 9.86599C85.7159 9.86599 86.6639 10.166 87.3719 10.766C88.0799 11.354 88.4699 12.152 88.5419 13.16H86.1299C86.0939 12.764 85.9259 12.452 85.6259 12.224C85.3379 11.984 84.9479 11.864 84.4559 11.864C83.9999 11.864 83.6459 11.948 83.3939 12.116C83.1539 12.284 83.0339 12.518 83.0339 12.818C83.0339 13.154 83.2019 13.412 83.5379 13.592C83.8739 13.76 84.3959 13.934 85.1039 14.114C85.8239 14.294 86.4179 14.48 86.8859 14.672C87.3539 14.864 87.7559 15.164 88.0919 15.572C88.4399 15.968 88.6199 16.496 88.6319 17.156C88.6319 17.732 88.4699 18.248 88.1459 18.704C87.8339 19.16 87.3779 19.52 86.7779 19.784C86.1899 20.036 85.4999 20.162 84.7079 20.162ZM90.9165 20.126C90.4605 20.126 90.0825 19.988 89.7825 19.712C89.4945 19.424 89.3505 19.07 89.3505 18.65C89.3505 18.23 89.4945 17.882 89.7825 17.606C90.0825 17.318 90.4605 17.174 90.9165 17.174C91.3605 17.174 91.7265 17.318 92.0145 17.606C92.3025 17.882 92.4465 18.23 92.4465 18.65C92.4465 19.07 92.3025 19.424 92.0145 19.712C91.7265 19.988 91.3605 20.126 90.9165 20.126Z" fill="#1E1E1E"/>
</svg>
