<svg width="19" height="14" viewBox="0 0 19 14" fill="none" xmlns="http://www.w3.org/2000/svg">
<path d="M6.06667 1H9.87192C9.93698 1 9.98472 1.06114 9.96894 1.12425L7.01894 12.9243C7.00781 12.9688 6.96781 13 6.92192 13H1.15C1.07864 13 1.03025 12.9274 1.05769 12.8615L5.97436 1.06154C5.98989 1.02427 6.0263 1 6.06667 1Z" fill="#3F79CF" stroke="#120E2A"/>
<path d="M14.0667 1H17.8719C17.937 1 17.9847 1.06114 17.9689 1.12425L15.0189 12.9243C15.0078 12.9688 14.9678 13 14.9219 13H9.15C9.07864 13 9.03025 12.9274 9.05769 12.8615L13.9744 1.06154C13.9899 1.02427 14.0263 1 14.0667 1Z" fill="#3F79CF" stroke="#120E2A"/>
</svg>
