<svg width="10" height="6" viewBox="0 0 10 6" fill="none" xmlns="http://www.w3.org/2000/svg">
<path d="M3.75004 3.00001C4.55421 3.00001 5.20837 2.34584 5.20837 1.54168C5.20837 0.73751 4.55421 0.0833435 3.75004 0.0833435C2.94587 0.0833435 2.29171 0.73751 2.29171 1.54168C2.29171 2.34584 2.94587 3.00001 3.75004 3.00001ZM3.75004 0.916677C4.09587 0.916677 4.37504 1.19584 4.37504 1.54168C4.37504 1.88751 4.09587 2.16668 3.75004 2.16668C3.40421 2.16668 3.12504 1.88751 3.12504 1.54168C3.12504 1.19584 3.40421 0.916677 3.75004 0.916677ZM3.75004 3.72918C2.77504 3.72918 0.833374 4.21668 0.833374 5.18751V5.91668H6.66671V5.18751C6.66671 4.21668 4.72504 3.72918 3.75004 3.72918ZM1.80837 5.08334C2.15837 4.84168 3.00421 4.56251 3.75004 4.56251C4.49587 4.56251 5.34171 4.84168 5.69171 5.08334H1.80837ZM6.68337 3.75418C7.16671 4.10418 7.50004 4.57084 7.50004 5.18751V5.91668H9.16671V5.18751C9.16671 4.34584 7.70837 3.86668 6.68337 3.75418ZM6.25004 3.00001C7.05421 3.00001 7.70837 2.34584 7.70837 1.54168C7.70837 0.73751 7.05421 0.0833435 6.25004 0.0833435C6.02504 0.0833435 5.81671 0.13751 5.62504 0.229177C5.88754 0.60001 6.04171 1.05418 6.04171 1.54168C6.04171 2.02918 5.88754 2.48334 5.62504 2.85418C5.81671 2.94584 6.02504 3.00001 6.25004 3.00001Z" fill="#888888"/>
</svg>
