<svg width="16" height="16" viewBox="0 0 16 16" fill="none" xmlns="http://www.w3.org/2000/svg">
<path d="M6.92 11L10.82 8.5C11.0067 8.38 11.1 8.21333 11.1 8C11.1 7.78667 11.0067 7.62 10.82 7.5L6.92 5C6.72 4.86667 6.51653 4.85653 6.3096 4.9696C6.10267 5.08267 5.99947 5.25947 6 5.5V10.5C6 10.74 6.10347 10.9168 6.3104 11.0304C6.51733 11.144 6.72053 11.1339 6.92 11ZM8 16C6.89333 16 5.85333 15.7899 4.88 15.3696C3.90667 14.9493 3.06 14.3795 2.34 13.66C1.62 12.94 1.05013 12.0933 0.6304 11.12C0.210667 10.1467 0.000533333 9.10667 0 8C0 6.89333 0.210133 5.85333 0.6304 4.88C1.05067 3.90667 1.62053 3.06 2.34 2.34C3.06 1.62 3.90667 1.05013 4.88 0.6304C5.85333 0.210667 6.89333 0.000533333 8 0C9.10667 0 10.1467 0.210133 11.12 0.6304C12.0933 1.05067 12.94 1.62053 13.66 2.34C14.38 3.06 14.9501 3.90667 15.3704 4.88C15.7907 5.85333 16.0005 6.89333 16 8C16 9.10667 15.7899 10.1467 15.3696 11.12C14.9493 12.0933 14.3795 12.94 13.66 13.66C12.94 14.38 12.0933 14.9501 11.12 15.3704C10.1467 15.7907 9.10667 16.0005 8 16Z" fill="#E5D4FD"/>
<path d="M6 10.8234V5.17662C6 5.09889 6.0848 5.05088 6.15145 5.09087L10.8571 7.91425C10.9218 7.95309 10.9218 8.04691 10.8571 8.08575L6.15145 10.9091C6.0848 10.9491 6 10.9011 6 10.8234Z" fill="#923FFF" stroke="#923FFF"/>
</svg>
