<svg width="28" height="28" viewBox="0 0 28 28" fill="none" xmlns="http://www.w3.org/2000/svg">
<rect width="28" height="28" rx="8" fill="#417CD4"/>
<path d="M14 7C12.9506 7 11.9278 7.33019 11.0764 7.94379C10.2251 8.55739 9.58844 9.4233 9.25658 10.4189C8.92473 11.4144 8.91453 12.4892 9.22743 13.4908C9.54033 14.4925 10.1605 15.3704 11 16V20.5C11 20.5885 11.0234 20.6754 11.068 20.7518C11.1125 20.8282 11.1765 20.8915 11.2535 20.9351C11.3304 20.9787 11.4176 21.0011 11.5061 21.0001C11.5945 20.999 11.6811 20.9745 11.757 20.929L14 19.583L16.243 20.929C16.3189 20.9745 16.4055 20.999 16.4939 21.0001C16.5824 21.0011 16.6696 20.9787 16.7465 20.9351C16.8235 20.8915 16.8875 20.8282 16.932 20.7518C16.9766 20.6754 17 20.5885 17 20.5V16C17.8395 15.3704 18.4597 14.4925 18.7726 13.4908C19.0855 12.4892 19.0753 11.4144 18.7434 10.4189C18.4116 9.4233 17.7749 8.55739 16.9236 7.94379C16.0722 7.33019 15.0494 7 14 7ZM10 12C10 10.9391 10.4214 9.92172 11.1716 9.17157C11.9217 8.42143 12.9391 8 14 8C15.0609 8 16.0783 8.42143 16.8284 9.17157C17.5786 9.92172 18 10.9391 18 12C18 13.0609 17.5786 14.0783 16.8284 14.8284C16.0783 15.5786 15.0609 16 14 16C12.9391 16 11.9217 15.5786 11.1716 14.8284C10.4214 14.0783 10 13.0609 10 12ZM16 16.584V19.617L14.257 18.57C14.1793 18.5235 14.0905 18.4989 14 18.4989C13.9095 18.4989 13.8207 18.5235 13.743 18.57L12 19.617V16.584C12.6308 16.8593 13.3118 17.0009 14 17C14.711 17 15.388 16.852 16 16.584Z" fill="white"/>
</svg>
