<svg width="28" height="28" viewBox="0 0 28 28" fill="none" xmlns="http://www.w3.org/2000/svg">
<rect width="28" height="28" rx="8" fill="#EC732F"/>
<path d="M14 7.5C12.7144 7.5 11.4577 7.88122 10.3888 8.59545C9.31988 9.30968 8.48676 10.3248 7.99479 11.5126C7.50282 12.7003 7.37409 14.0072 7.6249 15.2681C7.8757 16.529 8.49477 17.6872 9.40381 18.5962C10.3129 19.5052 11.471 20.1243 12.7319 20.3751C13.9928 20.6259 15.2997 20.4972 16.4874 20.0052C17.6752 19.5132 18.6903 18.6801 19.4046 17.6112C20.1188 16.5423 20.5 15.2856 20.5 14C20.4982 12.2767 19.8128 10.6244 18.5942 9.40582C17.3756 8.18722 15.7234 7.50182 14 7.5ZM14 19.5C12.9122 19.5 11.8488 19.1774 10.9444 18.5731C10.0399 17.9687 9.33495 17.1098 8.91867 16.1048C8.50238 15.0998 8.39347 13.9939 8.60568 12.927C8.8179 11.8601 9.34173 10.8801 10.1109 10.1109C10.8801 9.34172 11.8601 8.8179 12.927 8.60568C13.9939 8.39346 15.0998 8.50238 16.1048 8.91866C17.1098 9.33494 17.9687 10.0399 18.5731 10.9444C19.1774 11.8488 19.5 12.9122 19.5 14C19.4983 15.4582 18.9184 16.8562 17.8873 17.8873C16.8562 18.9184 15.4582 19.4983 14 19.5ZM11 12.75C11 12.6017 11.044 12.4567 11.1264 12.3333C11.2088 12.21 11.3259 12.1139 11.463 12.0571C11.6 12.0003 11.7508 11.9855 11.8963 12.0144C12.0418 12.0433 12.1754 12.1148 12.2803 12.2197C12.3852 12.3246 12.4567 12.4582 12.4856 12.6037C12.5145 12.7492 12.4997 12.9 12.4429 13.037C12.3861 13.1741 12.29 13.2912 12.1667 13.3736C12.0433 13.456 11.8983 13.5 11.75 13.5C11.5511 13.5 11.3603 13.421 11.2197 13.2803C11.079 13.1397 11 12.9489 11 12.75ZM17.5 12.75C17.5 12.8826 17.4473 13.0098 17.3536 13.1036C17.2598 13.1973 17.1326 13.25 17 13.25H15.5C15.3674 13.25 15.2402 13.1973 15.1464 13.1036C15.0527 13.0098 15 12.8826 15 12.75C15 12.6174 15.0527 12.4902 15.1464 12.3964C15.2402 12.3027 15.3674 12.25 15.5 12.25H17C17.1326 12.25 17.2598 12.3027 17.3536 12.3964C17.4473 12.4902 17.5 12.6174 17.5 12.75ZM16.9325 15.75C16.2894 16.8619 15.2206 17.5 14 17.5C12.7794 17.5 11.7106 16.8625 11.0669 15.75C11.034 15.6931 11.0127 15.6303 11.0042 15.5652C10.9956 15.5001 11 15.4339 11.017 15.3705C11.034 15.3071 11.0633 15.2476 11.1033 15.1955C11.1433 15.1434 11.1931 15.0997 11.25 15.0669C11.3069 15.034 11.3697 15.0127 11.4348 15.0042C11.4999 14.9956 11.5661 15 11.6295 15.017C11.6929 15.034 11.7524 15.0633 11.8045 15.1033C11.8566 15.1433 11.9003 15.1931 11.9331 15.25C12.3994 16.0569 13.1331 16.5 14 16.5C14.8669 16.5 15.6006 16.0562 16.0675 15.25C16.0988 15.1902 16.1418 15.1374 16.194 15.0947C16.2462 15.052 16.3065 15.0204 16.3712 15.0016C16.436 14.9828 16.5039 14.9773 16.5708 14.9854C16.6378 14.9935 16.7024 15.0151 16.7608 15.0489C16.8191 15.0826 16.8701 15.1278 16.9106 15.1818C16.951 15.2357 16.9801 15.2973 16.9962 15.3628C17.0122 15.4283 17.0149 15.4964 17.0039 15.5629C16.993 15.6295 16.9687 15.6931 16.9325 15.75Z" fill="white"/>
</svg>
